# xmcd CD database file
#
# Track frame offsets:
#	150
#	15413
#	34501
#	53260
#	63227
#	80081
#	98137
#	118176
#	137454
#	155236
#
# Disc length: 2255 seconds
#
# Revision: 0
# Processed by: cddbd v1.5.2PL0 Copyright (c) Steve Scherf et al.
# Submitted via: CDex 1.70beta2
#
DISCID=7508cd0a
DTITLE=Divers - Souvenirs du Sud Disque 1
DYEAR=2009
DGENRE=Merengue
TTITLE0=Uno Dos Tres
TTITLE1=Pinacolada
TTITLE2=Tequila Boom Boom
TTITLE3=Cumbia Mix
TTITLE4=Ay Mama
TTITLE5=Mariana Mambo
TTITLE6=Situ Boquita Fuera
TTITLE7=Maria
TTITLE8=Boom Boom
TTITLE9=Alma Negra
EXTD=YEAR: 2009
EXTT0=
EXTT1=
EXTT2=
EXTT3=
EXTT4=
EXTT5=
EXTT6=
EXTT7=
EXTT8=
EXTT9=
PLAYORDER=
